{
  "asset": { "version": "2.0" },
  "scene": 0,
  "scenes": [{ "nodes": [0,1,2] }],
  "nodes": [{"mesh":0},{"mesh":1},{"mesh":2}],
  "meshes": [{"primitives":[{"attributes":{"POSITION":0,"TEXCOORD_0":1},"indices":2,"material":0}]},{"primitives":[{"attributes":{"POSITION":3,"TEXCOORD_0":4},"indices":5,"material":0}]},{"primitives":[{"attributes":{"POSITION":6,"TEXCOORD_0":7},"indices":8,"material":0}]}],
  "materials": [{
    "name" : "ginnie2",
    "pbrMetallicRoughness": {
      "baseColorTexture": { "index": 0 },
      "metallicFactor": 0.0,
      "roughnessFactor": 1.0
    }
  }],
  "samplers": [{ "magFilter": 9728, "minFilter": 9728 }],
  "textures": [{ "source": 0, "sampler": 0 }],
  "images": [{ "uri": "ginnie2.png" }],
  "accessors": [{"bufferView":0,"byteOffset":0,"componentType":5126,"count":84,"type":"VEC3","min":[-0.75,0,-0.5],"max":[1,1.25,0.5]},{"bufferView":1,"byteOffset":0,"componentType":5126,"count":84,"type":"VEC2"},{"bufferView":2,"byteOffset":0,"componentType":5123,"count":84,"type":"SCALAR"},{"bufferView":3,"byteOffset":0,"componentType":5126,"count":18,"type":"VEC3","min":[-0.5,0.75,-0.75],"max":[-0.25,1,-0.3596]},{"bufferView":4,"byteOffset":0,"componentType":5126,"count":18,"type":"VEC2"},{"bufferView":5,"byteOffset":0,"componentType":5123,"count":18,"type":"SCALAR"},{"bufferView":6,"byteOffset":0,"componentType":5126,"count":18,"type":"VEC3","min":[-0.5,0.75,0.3596],"max":[-0.25,1,0.75]},{"bufferView":7,"byteOffset":0,"componentType":5126,"count":18,"type":"VEC2"},{"bufferView":8,"byteOffset":0,"componentType":5123,"count":18,"type":"SCALAR"}],
  "bufferViews": [{"buffer":0,"byteOffset":0,"byteLength":1008,"target":34962},{"buffer":0,"byteOffset":1008,"byteLength":672,"target":34962},{"buffer":0,"byteOffset":1680,"byteLength":168,"target":34963},{"buffer":0,"byteOffset":1848,"byteLength":216,"target":34962},{"buffer":0,"byteOffset":2064,"byteLength":144,"target":34962},{"buffer":0,"byteOffset":2208,"byteLength":36,"target":34963},{"buffer":0,"byteOffset":2244,"byteLength":216,"target":34962},{"buffer":0,"byteOffset":2460,"byteLength":144,"target":34962},{"buffer":0,"byteOffset":2604,"byteLength":36,"target":34963}],
  "buffers": [{ "uri": "ginnie2.bin", "byteLength": 2640 }]
}