{
  "asset": { "version": "2.0" },
  "scene": 0,
  "scenes": [{ "nodes": [0] }],
  "nodes": [{"mesh":0}],
  "meshes": [{"primitives":[{"attributes":{"POSITION":0,"TEXCOORD_0":1},"indices":2,"material":0}]}],
  "materials": [{
    "name" : "guinea_pig_house",
    "pbrMetallicRoughness": {
      "baseColorTexture": { "index": 0 },
      "metallicFactor": 0.0,
      "roughnessFactor": 1.0
    }
  }],
  "samplers": [{ "magFilter": 9728, "minFilter": 9728 }],
  "textures": [{ "source": 0, "sampler": 0 }],
  "images": [{ "uri": "guinea_pig_house.png" }],
  "accessors": [{"bufferView":0,"byteOffset":0,"componentType":5126,"count":60,"type":"VEC3","min":[-1,0,-1.75],"max":[1,1.5,1.75]},{"bufferView":1,"byteOffset":0,"componentType":5126,"count":60,"type":"VEC2"},{"bufferView":2,"byteOffset":0,"componentType":5123,"count":60,"type":"SCALAR"}],
  "bufferViews": [{"buffer":0,"byteOffset":0,"byteLength":720,"target":34962},{"buffer":0,"byteOffset":720,"byteLength":480,"target":34962},{"buffer":0,"byteOffset":1200,"byteLength":120,"target":34963}],
  "buffers": [{ "uri": "guinea_pig_house.bin", "byteLength": 1320 }]
}