{
  "asset": { "version": "2.0" },
  "scene": 0,
  "scenes": [{ "nodes": [0,1,2,3,4,5,6] }],
  "nodes": [{"mesh":0},{"mesh":1},{"mesh":2},{"mesh":3},{"mesh":4},{"mesh":5},{"mesh":6}],
  "meshes": [{"primitives":[{"attributes":{"POSITION":0,"TEXCOORD_0":1},"indices":2,"material":0}]},{"primitives":[{"attributes":{"POSITION":3,"TEXCOORD_0":4},"indices":5,"material":0}]},{"primitives":[{"attributes":{"POSITION":6,"TEXCOORD_0":7},"indices":8,"material":0}]},{"primitives":[{"attributes":{"POSITION":9,"TEXCOORD_0":10},"indices":11,"material":0}]},{"primitives":[{"attributes":{"POSITION":12,"TEXCOORD_0":13},"indices":14,"material":0}]},{"primitives":[{"attributes":{"POSITION":15,"TEXCOORD_0":16},"indices":17,"material":0}]},{"primitives":[{"attributes":{"POSITION":18,"TEXCOORD_0":19},"indices":20,"material":0}]}],
  "materials": [{
    "name" : "tree",
    "pbrMetallicRoughness": {
      "baseColorTexture": { "index": 0 },
      "metallicFactor": 0.0,
      "roughnessFactor": 1.0
    }
  }],
  "samplers": [{ "magFilter": 9728, "minFilter": 9728 }],
  "textures": [{ "source": 0, "sampler": 0 }],
  "images": [{ "uri": "tree.png" }],
  "accessors": [{"bufferView":0,"byteOffset":0,"componentType":5126,"count":84,"type":"VEC3","min":[-0.75,0,-0.75],"max":[0.75,12.75,0.75]},{"bufferView":1,"byteOffset":0,"componentType":5126,"count":84,"type":"VEC2"},{"bufferView":2,"byteOffset":0,"componentType":5123,"count":84,"type":"SCALAR"},{"bufferView":3,"byteOffset":0,"componentType":5126,"count":84,"type":"VEC3","min":[-3.46314835,10.1391511,-2.3875],"max":[3.46314835,16.3608489,3.3875]},{"bufferView":4,"byteOffset":0,"componentType":5126,"count":84,"type":"VEC2"},{"bufferView":5,"byteOffset":0,"componentType":5123,"count":84,"type":"SCALAR"},{"bufferView":6,"byteOffset":0,"componentType":5126,"count":84,"type":"VEC3","min":[-3.71051609,7.1669476,-1.34375],"max":[3.71051609,13.8330524,4.84375]},{"bufferView":7,"byteOffset":0,"componentType":5126,"count":84,"type":"VEC2"},{"bufferView":8,"byteOffset":0,"componentType":5123,"count":84,"type":"SCALAR"},{"bufferView":9,"byteOffset":0,"componentType":5126,"count":84,"type":"VEC3","min":[-3.46314835,8.1391511,-4.6375],"max":[3.46314835,14.3608489,1.1375]},{"bufferView":10,"byteOffset":0,"componentType":5126,"count":84,"type":"VEC2"},{"bufferView":11,"byteOffset":0,"componentType":5123,"count":84,"type":"SCALAR"},{"bufferView":12,"byteOffset":0,"componentType":5126,"count":84,"type":"VEC3","min":[-0.223677395,9.77796507,-0.3125],"max":[4.7236774,14.2220349,3.8125]},{"bufferView":13,"byteOffset":0,"componentType":5126,"count":84,"type":"VEC2"},{"bufferView":14,"byteOffset":0,"componentType":5123,"count":84,"type":"SCALAR"},{"bufferView":15,"byteOffset":0,"componentType":5126,"count":84,"type":"VEC3","min":[-4.97203493,9.5263226,-0.3125],"max":[-0.52796507,14.4736774,3.8125]},{"bufferView":16,"byteOffset":0,"componentType":5126,"count":84,"type":"VEC2"},{"bufferView":17,"byteOffset":0,"componentType":5123,"count":84,"type":"SCALAR"},{"bufferView":18,"byteOffset":0,"componentType":5126,"count":84,"type":"VEC3","min":[-3.46314835,8.6391511,0.8625],"max":[3.46314835,14.8608489,6.6375]},{"bufferView":19,"byteOffset":0,"componentType":5126,"count":84,"type":"VEC2"},{"bufferView":20,"byteOffset":0,"componentType":5123,"count":84,"type":"SCALAR"}],
  "bufferViews": [{"buffer":0,"byteOffset":0,"byteLength":1008,"target":34962},{"buffer":0,"byteOffset":1008,"byteLength":672,"target":34962},{"buffer":0,"byteOffset":1680,"byteLength":168,"target":34963},{"buffer":0,"byteOffset":1848,"byteLength":1008,"target":34962},{"buffer":0,"byteOffset":2856,"byteLength":672,"target":34962},{"buffer":0,"byteOffset":3528,"byteLength":168,"target":34963},{"buffer":0,"byteOffset":3696,"byteLength":1008,"target":34962},{"buffer":0,"byteOffset":4704,"byteLength":672,"target":34962},{"buffer":0,"byteOffset":5376,"byteLength":168,"target":34963},{"buffer":0,"byteOffset":5544,"byteLength":1008,"target":34962},{"buffer":0,"byteOffset":6552,"byteLength":672,"target":34962},{"buffer":0,"byteOffset":7224,"byteLength":168,"target":34963},{"buffer":0,"byteOffset":7392,"byteLength":1008,"target":34962},{"buffer":0,"byteOffset":8400,"byteLength":672,"target":34962},{"buffer":0,"byteOffset":9072,"byteLength":168,"target":34963},{"buffer":0,"byteOffset":9240,"byteLength":1008,"target":34962},{"buffer":0,"byteOffset":10248,"byteLength":672,"target":34962},{"buffer":0,"byteOffset":10920,"byteLength":168,"target":34963},{"buffer":0,"byteOffset":11088,"byteLength":1008,"target":34962},{"buffer":0,"byteOffset":12096,"byteLength":672,"target":34962},{"buffer":0,"byteOffset":12768,"byteLength":168,"target":34963}],
  "buffers": [{ "uri": "tree.bin", "byteLength": 12936 }]
}